<?xml version="1.0" encoding="UTF-8"?>
<!DOCTYPE svg PUBLIC "-//W3C//DTD SVG 1.1//EN" "http://www.w3.org/Graphics/SVG/1.1/DTD/svg11.dtd">
<!-- Creator: CorelDRAW 2020 (64-Bit) -->
<svg xmlns="http://www.w3.org/2000/svg" xml:space="preserve" width="239.883mm" height="239.52mm" version="1.1" style="shape-rendering:geometricPrecision; text-rendering:geometricPrecision; image-rendering:optimizeQuality; fill-rule:evenodd; clip-rule:evenodd"
viewBox="0 0 1842.04 1839.25"
 xmlns:xlink="http://www.w3.org/1999/xlink"
 xmlns:xodm="http://www.corel.com/coreldraw/odm/2003">
 <defs>
  <style type="text/css">
   <![CDATA[
    .fil1 {fill:#00C85A}
    .fil2 {fill:#F7B909}
    .fil0 {fill:red}
   ]]>
  </style>
 </defs>
 <g id="Слой_x0020_1">
  <metadata id="CorelCorpID_0Corel-Layer"/>
  <path class="fil0" d="M619.77 692.42c209.18,-257.74 588.51,-183.34 681.91,121.69 50.49,164.91 117.74,209.92 79.41,420.44 -53.52,294 -328.5,475.32 -339.38,547.85 -20,133.31 367.27,-79.93 412.04,-111.68 708.5,-502.48 397.11,-1642.68 -526.59,-1670.72 -17.86,128.24 -528.75,346.79 -426.7,800.89 9.6,42.73 23.35,78.81 43.13,117.27 4.2,-93.89 23.76,-148.23 76.18,-225.75z"/>
  <path class="fil1" d="M551.93 1002.73c-16.69,-79.98 -78.75,-112.24 -86.87,-275.92 -19.88,-400.92 420.64,-643.78 368.22,-709.56 -39.8,-49.93 -333.71,82.8 -388.24,115.94 -164.55,99.99 -54.49,20.76 -78.75,184.55 -36.64,247.38 -91.8,470.05 81.21,693.95 48.2,62.37 102.09,104.94 171.22,140.63 -33.92,-48.53 -54.36,-91.3 -66.79,-149.6z"/>
  <path class="fil2" d="M1231.74 1166.24c-147.42,166.69 -375.83,196.1 -549.03,53.88 -71.99,-59.11 -132.25,-51.53 -231.57,-165.12 -265.47,-303.62 -77.36,-731.25 -155.68,-774.1 -70.01,-38.31 -218.51,271.93 -235.84,318.52 -228.43,614.17 227.31,1243.81 891.8,1239.82 -9.48,-78.27 159.5,-194.52 225.34,-266.1 165.16,-179.52 248.31,-416.99 141.02,-647.51 -4.25,100.81 -26.45,159.75 -86.05,240.62z"/>
 </g>
</svg>
